<?xml version="1.0" encoding="UTF-8"?>
<svg id="_图层_1" data-name="图层_1" xmlns="http://www.w3.org/2000/svg" version="1.1" xmlns:xlink="http://www.w3.org/1999/xlink" viewBox="0 0 128 128">
  <!-- Generator: Adobe Illustrator 29.0.0, SVG Export Plug-In . SVG Version: 2.1.0 Build 186)  -->
  <defs>
    <style>
      .st0 {
        fill: url(#_未命名的渐变_100);
      }

      .st1 {
        opacity: .7;
      }

      .st1, .st2 {
        fill: #fff;
      }

      .st2 {
        opacity: .5;
      }
    </style>
    <linearGradient id="_未命名的渐变_100" data-name="未命名的渐变 100" x1="20.3" y1="139.7" x2="107.7" y2="-11.7" gradientUnits="userSpaceOnUse">
      <stop offset=".2" stop-color="#78c7c3"/>
      <stop offset="1" stop-color="#345fab"/>
    </linearGradient>
  </defs>
  <rect class="st0" width="128" height="128"/>
  <path class="st1" d="M109,51.3h-38.7c-.6-2.3-2.7-4-5.2-4h-23.2c-3,0-5.4,2.4-5.4,5.4v46.9c0,4.1,3.4,7.5,7.5,7.5h65c4.1,0,7.5-3.4,7.5-7.5v-40.7c0-4.1-3.4-7.5-7.5-7.5Z"/>
  <path class="st2" d="M79.3,26.5h-35c-.7-2.1-2.7-3.7-5.1-3.7h-20.4c-3,0-5.4,2.4-5.4,5.4v41.9c0,4.1,3.4,7.5,7.5,7.5h58.4c4.1,0,7.5-3.4,7.5-7.5v-36.1c0-4.1-3.4-7.5-7.5-7.5Z"/>
</svg>